<?xml version="1.0" encoding="UTF-8" standalone="yes"?>
<svg version="1.1" id="Layer_1" xmlns:x="&amp;ns_extend;" xmlns:i="&amp;ns_ai;" xmlns:graph="&amp;ns_graphs;" xmlns="http://www.w3.org/2000/svg" xmlns:xlink="http://www.w3.org/1999/xlink" x="0px" y="0px" viewBox="0 0 315 125.7181549" style="enable-background:new 0 0 315 125.7181549;" xml:space="preserve">
      <style type="text/css">.st0{fill:#0C8AFC;}</style>
    <metadata>
              <sfw>
                      <slices/>
            <sliceSourceBounds bottomLeftOrigin="true" height="125.7181549" width="315" x="-112.891304" y="237.4017944"/>
                  </sfw>
          </metadata>
    <g id="color_index_0" fill="#EA4798">
              <path d="M175.7738037,124.37117h-7.8812714c0-0.7307739-0.0143433-1.4544296-0.0358124-2.1566086&#x9;&#x9;c-0.6806641-23.6581039-13.2405701-45.1453018-33.5813751-57.4830933&#x9;&#x9;c-11.1197662-6.7420464-23.8157959-10.3101425-36.7195435-10.3101425c-10.5752335,0-21.2364502,2.4575615-30.8157654,7.1003342&#x9;&#x9;L11.3275309,88.3752747v-8.7553482l51.9733696-25.1914291c10.6469078-5.1586571,22.490284-7.8884392,34.2549019-7.8884392&#x9;&#x9;c14.3438797,0,28.4585266,3.9621506,40.8034363,11.4565353C161,71.7243118,174.971344,95.6475525,175.7379913,121.9853287&#x9;&#x9;C175.7594604,122.7734375,175.7738037,123.568718,175.7738037,124.37117z"/>
        <path d="M161.4442139,124.37117h-7.8812561c0-0.5660019-0.0143433-1.1248703-0.0286865-1.6837082v-0.085968&#x9;&#x9;c-0.5373688-18.7431183-10.5179138-35.8096085-26.6959763-45.6182098&#x9;&#x9;c-16.4575424-9.9805908-36.5834122-10.9406433-53.8505859-2.5650024l-67.327507,32.6284332v-8.7625198L69.5486221,67.325119&#x9;&#x9;c19.6816559-9.5435028,42.6233215-8.4544411,61.3735733,2.9232483&#x9;&#x9;c18.4708405,11.1985703,29.8700104,30.6939774,30.4933319,52.1524887v0.1074905&#x9;&#x9;C161.4298706,123.1316757,161.4442139,123.7478409,161.4442139,124.37117z"/>
        <path d="M147.1146393,124.37117h-7.8812714c0-0.4442139-0.0071716-0.8884201-0.0215149-1.3254623&#x9;&#x9;c-0.4012299-13.89254-7.8095856-26.5312424-19.8034439-33.8106461c-12.2732849-7.4442291-27.2978745-8.1678772-40.1729813-1.92733&#x9;&#x9;L0,125.7181549v-8.7625198l75.7962952-36.741066c15.2968521-7.4083633,33.1300278-6.5557556,47.6960144,2.2784424&#x9;&#x9;c14.2937622,8.6765518,23.1136169,23.7440796,23.5936432,40.3234177&#x9;&#x9;C147.1074677,123.3323135,147.1146393,123.8481598,147.1146393,124.37117z"/>
        <path d="M303.6724548,79.6199265v8.7553482l-55.4053192-26.8536148&#x9;&#x9;c-9.5864868-4.6427727-20.2405243-7.1003342-30.8157654-7.1003342c-12.910965,0-25.6069489,3.5680962-36.7195435,10.3101425&#x9;&#x9;c-4.9508514,3.0020523-9.4431915,6.5486298-13.4124756,10.5394211c-1.5332642-2.1566086-3.1668701-4.2344131-4.9007263-6.2405472&#x9;&#x9;c4.2415466-4.155571,8.9989777-7.8669243,14.2220917-11.0337486c12.3521271-7.4943848,26.4595947-11.4565353,40.8106537-11.4565353&#x9;&#x9;c11.7574463,0,23.6079865,2.7297821,34.2476807,7.8884392L303.6724548,79.6199265z"/>
        <path d="M309.3398132,98.2841949v8.7553482l-67.3203888-32.6212616&#x9;&#x9;c-17.2671356-8.3756409-37.400177-7.4155884-53.8505402,2.5650024c-5.0726929,3.0808563-9.5363464,6.8638382-13.2906799,11.1913986&#x9;&#x9;c-1.1893768-2.5220184-2.5005035-4.979538-3.9334717-7.3654251c3.8188019-4.0266037,8.225174-7.5874863,13.1330414-10.5608902&#x9;&#x9;c18.7502747-11.3776894,41.6990814-12.4667511,61.3807831-2.9232483L309.3398132,98.2841949z"/>
        <path d="M315,116.9556351v8.7553482l-79.2282562-38.4032516&#x9;&#x9;c-12.8822784-6.2405472-27.8996887-5.5240707-40.1729889,1.92733c-6.3981476,3.8833008-11.4922943,9.2855835-14.9099274,15.5905914&#x9;&#x9;c-0.7952728-3.3746338-1.7840118-6.6775894-2.9734039-9.894577c3.6898956-4.8935623,8.3398285-9.1279373,13.7922211-12.4380646&#x9;&#x9;c14.5732117-8.834198,32.3992004-9.6868057,47.6960144-2.2784424L315,116.9556351z"/>
        <path d="M161.4443512,51.2359428h-7.8812714c0-11.9527435-9.7242432-21.6773376-21.6769867-21.6773376v-7.8812675&#x9;&#x9;C148.1845856,21.6773376,161.4443512,34.9370956,161.4443512,51.2359428z"/>
        <path d="M161.4443512,51.2359428h-7.8812714c0-16.2988472,13.2597656-29.5586052,29.55896-29.5586052v7.8812675&#x9;&#x9;C171.1685944,29.5586052,161.4443512,39.2831993,161.4443512,51.2359428z"/>
        <path d="M183.1220398,29.5586052c-16.2991943,0-29.55896-13.259758-29.55896-29.5586052h7.8812714&#x9;&#x9;c0,11.9527445,9.7242432,21.6773376,21.6776886,21.6773376V29.5586052z"/>
        <path d="M131.8860931,29.5586052v-7.8812675c11.9527435,0,21.6769867-9.7245932,21.6769867-21.6773376h7.8812714&#x9;&#x9;C161.4443512,16.2988472,148.1845856,29.5586052,131.8860931,29.5586052z"/>
          </g>
  </svg>